HIERARCHY
ROOT Hips
{
	OFFSET	0.00	0.00	0.00
	CHANNELS 6 Xposition Yposition Zposition Zrotation Xrotation Yrotation
	JOINT LeftUpLeg
	{
		OFFSET	 0.126116	-0.014019	-0.065224
		CHANNELS 3 Zrotation Xrotation Yrotation
		JOINT LeftLeg
		{
			OFFSET	 0.000000	 0.000000	 0.569914
			CHANNELS 3 Zrotation Xrotation Yrotation
			JOINT LeftFoot
			{
				OFFSET	 0.000000	 0.000000	 0.544423
				CHANNELS 3 Zrotation Xrotation Yrotation
				JOINT LeftToeBase
				{
					OFFSET	 0.000000	 0.000000	 0.207117
					CHANNELS 3 Zrotation Xrotation Yrotation
					End Site
					{
						OFFSET	 0.000000	 0.000000	 0.207117
					}
				}
			}
		}
	}
	JOINT RightUpLeg
	{
		OFFSET	-0.124023	-0.008373	-0.065224
		CHANNELS 3 Zrotation Xrotation Yrotation
		JOINT RightLeg
		{
			OFFSET	 0.000000	 0.000000	 0.570047
			CHANNELS 3 Zrotation Xrotation Yrotation
			JOINT RightFoot
			{
				OFFSET	 0.000000	 0.000000	 0.544354
				CHANNELS 3 Zrotation Xrotation Yrotation
				JOINT RightToeBase
				{
					OFFSET	 0.000000	 0.000000	 0.207540
					CHANNELS 3 Zrotation Xrotation Yrotation
					End Site
					{
						OFFSET	 0.000000	 0.000000	 0.207540
					}
				}
			}
		}
	}
	JOINT Spine
	{
		OFFSET	 0.000184	-0.007763	 0.117403
		CHANNELS 3 Zrotation Xrotation Yrotation
		JOINT Spine1
		{
			OFFSET	 0.000000	 0.000000	 0.137269
			CHANNELS 3 Zrotation Xrotation Yrotation
			JOINT Spine2
			{
				OFFSET	 0.000000	 0.000000	 0.156879
				CHANNELS 3 Zrotation Xrotation Yrotation
				JOINT LeftShoulder
				{
					OFFSET	 0.080501	-0.002496	 0.160144
					CHANNELS 3 Zrotation Xrotation Yrotation
					JOINT LeftArm
					{
						OFFSET	 0.000000	 0.000000	 0.164363
						CHANNELS 3 Zrotation Xrotation Yrotation
						JOINT LeftForeArm
						{
							OFFSET	 0.000000	 0.000000	 0.364576
							CHANNELS 3 Zrotation Xrotation Yrotation
							JOINT LeftHand
							{
								OFFSET	 0.000000	 0.000000	 0.360812
								CHANNELS 3 Zrotation Xrotation Yrotation
								JOINT LeftHandIndex1
								{
									OFFSET	 0.000000	 0.000000	 0.086006
									CHANNELS 3 Zrotation Xrotation Yrotation
									JOINT LeftHandIndex2
									{
										OFFSET	 0.000000	 0.000000	 0.047236
										CHANNELS 3 Zrotation Xrotation Yrotation
										JOINT LeftHandIndex3
										{
											OFFSET	-0.004284	-0.000551	 0.038166
											CHANNELS 3 Zrotation Xrotation Yrotation
											End Site
											{
												OFFSET	-0.004284	-0.000551	 0.038166
											}
										}
									}
								}
							}
						}
					}
				}
				JOINT Neck
				{
					OFFSET	 0.000000	 0.000000	 0.176489
					CHANNELS 3 Zrotation Xrotation Yrotation
					JOINT Head
					{
						OFFSET	 0.000000	-0.001747	 0.077940
						CHANNELS 3 Zrotation Xrotation Yrotation
						End Site
						{
							OFFSET	 0.000000	-0.001747	 0.077940
						}
					}
				}
				JOINT RightShoulder
				{
					OFFSET	-0.080363	 0.000306	 0.159706
					CHANNELS 3 Zrotation Xrotation Yrotation
					JOINT RightArm
					{
						OFFSET	 0.000000	 0.000000	 0.164196
						CHANNELS 3 Zrotation Xrotation Yrotation
						JOINT RightForeArm
						{
							OFFSET	 0.000000	 0.000000	 0.365611
							CHANNELS 3 Zrotation Xrotation Yrotation
							JOINT RightHand
							{
								OFFSET	 0.000000	 0.000000	 0.360648
								CHANNELS 3 Zrotation Xrotation Yrotation
								JOINT RightHandIndex1
								{
									OFFSET	 0.000000	 0.000000	 0.069977
									CHANNELS 3 Zrotation Xrotation Yrotation
									JOINT RightHandIndex2
									{
										OFFSET	 0.000000	 0.000000	 0.052305
										CHANNELS 3 Zrotation Xrotation Yrotation
										JOINT RightHandIndex3
										{
											OFFSET	 0.009002	-0.000782	 0.042196
											CHANNELS 3 Zrotation Xrotation Yrotation
											End Site
											{
												OFFSET	 0.009002	-0.000782	 0.042196
											}
										}
									}
								}
							}
						}
					}
				}
			}
		}
	}
}
MOTION
Frames:    6
Frame Time: 0.03333334
-0.000644	 0.020171	 1.264601	 0.002880	-0.001705	-0.185556	 5.570434	-4.189127	 177.192300	 1.409241	-16.247750	-0.960638	-10.297630	 72.831600	 4.463997	-2.385833	 28.452760	 0.000004	-5.626198	-4.893217	-176.888100	-1.381185	-17.143980	 0.998151	 10.204940	 73.169830	-4.486562	 2.384658	 28.388730	 0.000004	 3.243973	 2.843119	-0.120394	 2.171351	 3.332882	 0.874739	-6.539911	-4.052711	-1.393759	-91.776210	 78.527470	-180.000000	 58.401400	 39.691160	-59.835640	-8.638369	 0.194918	-0.745081	-29.258230	 1.521655	-4.351290	-2.635965	 4.993658	 6.788941	-5.165319	 0.784187	 3.516649	-5.225038	 0.466231	 0.424329	-0.000002	-3.783157	-0.089647	-6.376875	 4.824801	 0.268915	 89.782050	 78.203890	-180.000000	-61.929280	 40.964190	 54.869980	 8.038144	 3.397820	 7.956959	 28.435260	 0.516802	 8.817924	 6.112037	 4.509576	-0.364401	 4.968462	 1.518543	-9.347576	 5.168945	 0.703820	 2.021906
-0.000640	 0.020478	 1.260022	 0.003060	-0.002071	-0.181946	 5.965683	-5.718092	 177.264500	 1.349469	-19.328810	-1.156227	-11.643220	 74.332640	 5.869758	-2.385833	 28.452760	 0.000004	-6.018150	-6.353765	-176.961000	-1.322225	-20.079990	 1.182841	 11.491250	 74.601560	-5.828252	 2.384658	 28.388730	 0.000004	 2.346377	 2.897657	-0.127814	 2.156031	 3.142557	 0.880126	-6.496233	-3.811461	-1.367440	-91.776180	 78.527450	 180.000000	 58.204390	 39.609270	-59.681920	-9.040418	 0.203711	-0.980525	-29.258200	 1.521660	-4.351309	-2.635965	 4.993658	 6.788941	-5.165319	 0.784187	 3.516649	-5.225038	 0.466231	 0.424329	-0.000002	-3.783157	-0.089647	-6.345184	 4.944196	 0.274205	 89.782070	 78.203900	-180.000000	-61.693190	 40.562270	 55.885200	 7.968486	 3.066399	 7.462951	 28.515560	 0.159330	 8.606191	 6.112037	 4.509576	-0.364401	 4.968462	 1.518543	-9.347576	 5.168945	 0.703820	 2.021906
-0.000631	 0.021076	 1.251188	 0.003587	-0.002045	-0.172639	 6.757492	-8.156748	 177.355800	 1.228236	-24.217970	-1.482748	-14.414080	 76.680560	 8.738211	-2.385833	 28.452760	 0.000004	-6.804784	-8.717254	-177.064100	-1.202675	-24.807390	 1.495705	 14.162650	 76.876050	-8.590291	 2.384658	 28.388730	 0.000004	 0.337996	 3.001408	-0.140317	 2.107325	 2.777179	 0.882282	-6.353547	-3.352292	-1.305805	-91.776190	 78.527430	-180.000000	 57.787150	 39.446090	-59.325110	-9.925973	 0.235562	-1.502404	-29.258230	 1.521640	-4.351290	-2.635965	 4.993658	 6.788941	-5.165319	 0.784187	 3.516649	-5.225038	 0.466231	 0.424329	-0.000002	-3.783157	-0.089647	-6.225763	 5.180329	 0.281901	 89.782150	 78.203870	 179.999900	-60.659430	 39.371870	 57.722250	 7.586986	 2.927027	 7.739017	 28.791570	-0.690551	 8.111340	 6.112037	 4.509576	-0.364401	 4.968462	 1.518543	-9.347576	 5.168945	 0.703820	 2.021906
-0.000625	 0.021619	 1.243347	 0.004233	-0.000994	-0.161762	 7.461352	-9.985430	 177.405200	 1.114020	-27.863500	-1.742790	-17.250020	 78.393200	 11.633760	-2.385833	 28.452760	 0.000004	-7.537255	-10.507110	-177.130200	-1.090094	-28.364620	 1.747139	 16.845890	 78.555180	-11.357370	 2.384658	 28.388730	 0.000004	-1.699154	 3.090657	-0.149049	 2.043007	 2.458407	 0.874410	-6.162542	-2.956008	-1.240215	-91.776110	 78.527450	 179.999900	 57.363510	 39.285190	-58.916610	-10.817390	 0.284241	-2.028574	-29.258240	 1.521653	-4.351288	-2.635965	 4.993658	 6.788941	-5.165319	 0.784187	 3.516649	-5.225038	 0.466231	 0.424329	-0.000002	-3.783157	-0.089647	-6.054956	 5.393741	 0.285463	 89.782120	 78.203900	 180.000000	-58.154420	 37.452000	 57.093200	 6.483552	 4.873294	 13.176630	 28.678790	-1.602504	 7.423570	 6.112037	 4.509576	-0.364401	 4.968462	 1.518543	-9.347576	 5.168945	 0.703820	 2.021906
-0.000616	 0.022232	 1.234747	 0.004972	 0.000269	-0.148570	 8.261762	-11.769220	 177.436800	 0.980685	-31.399550	-2.012341	-20.890380	 80.012430	 15.348230	-2.385833	 28.452760	 0.000004	-8.338229	-12.258190	-177.186400	-0.958758	-31.830540	 2.008920	 20.373390	 80.150480	-14.954030	 2.384658	 28.388730	 0.000004	-4.157240	 3.185616	-0.154158	 1.949724	 2.118374	 0.854164	-5.883529	-2.537447	-1.157572	-91.776180	 78.527470	 180.000000	 56.849610	 39.085710	-58.374250	-12.005400	 0.368036	-2.672408	-29.157480	 1.534861	-4.335022	-2.635965	 4.993658	 6.788941	-5.165319	 0.784187	 3.516649	-5.225038	 0.466231	 0.424329	-0.000002	-3.783157	-0.089647	-5.797049	 5.629312	 0.285237	 89.782070	 78.203900	-180.000000	-55.003620	 35.056830	 59.822550	 4.672421	 5.164760	 15.475060	 27.715110	-2.862516	 6.025170	 6.112037	 4.509576	-0.364401	 4.968462	 1.518543	-9.347576	 5.168945	 0.703820	 2.021906
-0.000605	 0.022783	 1.226952	 0.005598	 0.001417	-0.135873	 8.981934	-13.219680	 177.451300	 0.854094	-34.261090	-2.245762	-24.814890	 81.278070	 19.333940	-2.385833	 28.452760	 0.000004	-9.060972	-13.685320	-177.225700	-0.834141	-34.643220	 2.236219	 24.187740	 81.403560	-18.825500	 2.384658	 28.388730	 0.000004	-6.488400	 3.266869	-0.154299	 1.846678	 1.826949	 0.825160	-5.574042	-2.182109	-1.075389	-91.776080	 78.527470	 179.999900	 56.332400	 38.877440	-57.778040	-13.098140	 0.473533	-3.296329	-29.120620	 1.539684	-4.329015	-2.635965	 4.993658	 6.788941	-5.165319	 0.784187	 3.516649	-5.225038	 0.466231	 0.424329	-0.000002	-3.783157	-0.089647	-5.505013	 5.837804	 0.280893	 89.782080	 78.203900	 180.000000	-51.069560	 32.617080	 63.042610	 2.619835	 5.213800	 17.503320	 26.361980	-3.849726	 4.504037	 6.112037	 4.509576	-0.364401	 4.968462	 1.518543	-9.347576	 5.168945	 0.703820	 2.021906
